<?xml version="1.0" encoding="UTF-8" standalone="no"?>
<svg
   xmlns:dc="http://purl.org/dc/elements/1.1/"
   xmlns:cc="http://creativecommons.org/ns#"
   xmlns:rdf="http://www.w3.org/1999/02/22-rdf-syntax-ns#"
   xmlns:svg="http://www.w3.org/2000/svg"
   xmlns="http://www.w3.org/2000/svg"
   viewBox="0 0 816 1056"
   height="1056"
   width="816"
   xml:space="preserve"
   id="svg2"
   version="1.1"><metadata
     id="metadata8"><rdf:RDF><cc:Work
         rdf:about=""><dc:format>image/svg+xml</dc:format><dc:type
           rdf:resource="http://purl.org/dc/dcmitype/StillImage" /></cc:Work></rdf:RDF></metadata><defs
     id="defs6" /><g
     transform="matrix(1.3333333,0,0,-1.3333333,0,1056)"
     id="g10"><text
       id="text14"
       style="font-variant:normal;font-weight:normal;font-size:24.78709984px;font-family:CMCSC10;-inkscape-font-specification:CMCSC10;writing-mode:lr-tb;fill:#000000;fill-opacity:1;fill-rule:nonzero;stroke:none"
       transform="matrix(1,0,0,-1,212.327,753.462)"><tspan
         id="tspan12"
         y="0"
         x="0 15.147397 30.349325 44.175571 59.377499 66.868156 88.960899 110.06464 124.72125 139.92317 152.91409 168.11603">SnehilGautam</tspan></text>
<text
       id="text18"
       style="font-variant:normal;font-weight:normal;font-size:10.90909958px;font-family:CMR10;-inkscape-font-specification:CMR10;writing-mode:lr-tb;fill:#000000;fill-opacity:1;fill-rule:nonzero;stroke:none"
       transform="matrix(1,0,0,-1,252.246,738.917)"><tspan
         id="tspan16"
         y="0"
         x="0 10.000372 16.061468 24.846565 30.907661 36.362213 39.392761 46.056038 56.056412 61.51096 67.57206 73.026604 77.299698 82.75425 87.056801 92.823349 97.065903 101.32809">Mumbai,Maharashtra</tspan></text>
<text
       id="text22"
       style="font-variant:normal;font-weight:normal;font-size:9.96259975px;font-family:CMR10;-inkscape-font-specification:CMR10;writing-mode:lr-tb;fill:#000000;fill-opacity:1;fill-rule:nonzero;stroke:none"
       transform="matrix(1,0,0,-1,166.252,725.965)"><tspan
         id="tspan20"
         y="0"
         x="0 4.9812999 9.9625998 14.9439 19.9252 24.9065 29.8878 34.869099 39.850399 44.831699">9996051170</tspan></text>
<g
       transform="translate(166.252,724.57)"
       id="g24"><path
         id="path26"
         style="fill:none;stroke:#000000;stroke-width:0.398;stroke-linecap:butt;stroke-linejoin:miter;stroke-miterlimit:10;stroke-dasharray:none;stroke-opacity:1"
         d="M 0,0 H 49.813" /></g><text
       id="text30"
       style="font-variant:normal;font-weight:normal;font-size:9.96259975px;font-family:CMR10;-inkscape-font-specification:CMR10;writing-mode:lr-tb;fill:#000000;fill-opacity:1;fill-rule:nonzero;stroke:none"
       transform="matrix(1,0,0,-1,226.028,725.965)"><tspan
         id="tspan28"
         y="0"
         x="0 3.9292495 8.3566284 12.258979 18.073153 22.500532 27.7568 31.631254 39.93309 42.700699 45.468311 48.23592 52.6633 56.565651 60.4949 65.476196 70.457497 75.438797 83.187714 88.169006 96.470848 101.45214 104.21976 106.98737 109.75497 114.18236 119.16366">serpentmillers429@gmail.com</tspan></text>
<g
       transform="translate(226.028,722.633)"
       id="g32"><path
         id="path34"
         style="fill:none;stroke:#000000;stroke-width:0.398;stroke-linecap:butt;stroke-linejoin:miter;stroke-miterlimit:10;stroke-dasharray:none;stroke-opacity:1"
         d="M 0,0 H 127.467" /></g><text
       id="text38"
       style="font-variant:normal;font-weight:normal;font-size:9.96259975px;font-family:CMR10;-inkscape-font-specification:CMR10;writing-mode:lr-tb;fill:#000000;fill-opacity:1;fill-rule:nonzero;stroke:none"
       transform="matrix(1,0,0,-1,363.458,725.965)"><tspan
         id="tspan36"
         y="0"
         x="0 6.226625 8.994235 14.529456 19.508764 23.936142 29.471363 33.068859">LinkedIn</tspan></text>
<g
       transform="translate(363.458,724.57)"
       id="g40"><path
         id="path42"
         style="fill:none;stroke:#000000;stroke-width:0.398;stroke-linecap:butt;stroke-linejoin:miter;stroke-miterlimit:10;stroke-dasharray:none;stroke-opacity:1"
         d="M 0,0 H 38.605" /></g><text
       id="text46"
       style="font-variant:normal;font-weight:normal;font-size:9.96259975px;font-family:CMR10;-inkscape-font-specification:CMR10;writing-mode:lr-tb;fill:#000000;fill-opacity:1;fill-rule:nonzero;stroke:none"
       transform="matrix(1,0,0,-1,412.026,725.965)"><tspan
         id="tspan44"
         y="0"
         x="0 7.8176522 10.585262 14.459718 21.931667 27.466888">GitHub</tspan></text>
<g
       transform="translate(412.026,724.57)"
       id="g48"><path
         id="path50"
         style="fill:none;stroke:#000000;stroke-width:0.398;stroke-linecap:butt;stroke-linejoin:miter;stroke-miterlimit:10;stroke-dasharray:none;stroke-opacity:1"
         d="M 0,0 H 33.001" /></g><text
       id="text54"
       style="font-variant:normal;font-weight:normal;font-size:11.9552002px;font-family:CMBX12;-inkscape-font-specification:CMBX12;writing-mode:lr-tb;fill:#000000;fill-opacity:1;fill-rule:nonzero;stroke:none"
       transform="matrix(1,0,0,-1,28.8,709.739)"><tspan
         id="tspan52"
         y="0"
         x="0 8.8277197 19.136688 29.473154 39.186756 48.218906 57.572659 62.581886 72.682831">EDUCATION</tspan></text>
<g
       transform="translate(28.8,705.953)"
       id="g56"><path
         id="path58"
         style="fill:none;stroke:#130810;stroke-width:0.398;stroke-linecap:butt;stroke-linejoin:miter;stroke-miterlimit:10;stroke-dasharray:none;stroke-opacity:1"
         d="M 0,0 H 553.68" /></g><text
       id="text64"
       style="font-variant:normal;font-weight:normal;font-size:9.96259975px;font-family:CMBX10;-inkscape-font-specification:CMBX10;writing-mode:lr-tb;fill:#000000;fill-opacity:1;fill-rule:nonzero;stroke:none"
       transform="matrix(1,0,0,-1,28.8,692.44)"><tspan
         id="tspan60"
         y="0"
         x="0 4.6634932 9.0081825 20.79394 26.715708 32.763008 39.128113 45.493217 51.858322 58.223427 494.48499 500.2135 505.94199 511.67047 521.21466 530.7688 536.49731 542.22577 547.95428">IITJodhpur2024–2028</tspan><tspan
         id="tspan62"
         y="13.549"
         x="0 8.150403 11.332458 18.346128 23.597414 28.370497">B.Tech</tspan></text>
<text
       id="text68"
       style="font-variant:normal;font-weight:normal;font-size:9.96259975px;font-family:CMR10;-inkscape-font-specification:CMR10;writing-mode:lr-tb;fill:#000000;fill-opacity:1;fill-rule:nonzero;stroke:none"
       transform="matrix(1,0,0,-1,66.853147,678.891)"><tspan
         id="tspan66"
         y="0"
         x="0 8.3088083 15.780759 19.683109 23.557564 26.325174 31.860395 36.287773 39.055386 44.036686 50.121841 53.719334 58.975605 62.85006 67.277435 70.045052 72.81266 75.580269 80.561569 84.988945 90.52417 94.951546 102.70644 107.68774 113.22295 122.07572 129.68616 134.66745 138.5419 146.84076 152.37598 156.80336 159.57097 163.99834 169.53357 173.96094 181.71584">–ArtifcialIntelligenceandDataScience–</tspan></text>
<text
       id="text72"
       style="font-variant:normal;font-weight:normal;font-size:9.96259975px;font-family:CMBX10;-inkscape-font-specification:CMBX10;writing-mode:lr-tb;fill:#000000;fill-opacity:1;fill-rule:nonzero;stroke:none"
       transform="matrix(1,0,0,-1,257.14678,678.891)"><tspan
         id="tspan70"
         y="0"
         x="0 8.2749357 17.283119 24.158308 32.819794 39.817524 45.546017 48.728073 54.45657">CGPA:6.84</tspan></text>
<text
       id="text76"
       style="font-variant:normal;font-weight:normal;font-size:9.96259975px;font-family:CMR10;-inkscape-font-specification:CMR10;writing-mode:lr-tb;fill:#000000;fill-opacity:1;fill-rule:nonzero;stroke:none"
       transform="matrix(1,0,0,-1,546.06317,678.891)"><tspan
         id="tspan74"
         y="0"
         x="0 5.1197801 10.37007 15.905291 21.440512 26.975733 32.510952">Jodhpur</tspan></text>
<text
       id="text80"
       style="font-variant:normal;font-weight:normal;font-size:11.9552002px;font-family:CMBX12;-inkscape-font-specification:CMBX12;writing-mode:lr-tb;fill:#000000;fill-opacity:1;fill-rule:nonzero;stroke:none"
       transform="matrix(1,0,0,-1,28.8,663.526)"><tspan
         id="tspan78"
         y="0"
         x="0 9.3537483 18.181469 27.895067 38.410862 48.926655 53.935886 63.649487 73.805428 86.369148 93.841148 104.37128 109.38052 117.46104 125.54156">TECHNICALSKILLS</tspan></text>
<g
       transform="translate(28.8,659.74)"
       id="g82"><path
         id="path84"
         style="fill:none;stroke:#130810;stroke-width:0.398;stroke-linecap:butt;stroke-linejoin:miter;stroke-miterlimit:10;stroke-dasharray:none;stroke-opacity:1"
         d="M 0,0 H 553.68" /></g><text
       id="text88"
       style="font-variant:normal;font-weight:normal;font-size:9.96259975px;font-family:CMBX10;-inkscape-font-specification:CMBX10;writing-mode:lr-tb;fill:#000000;fill-opacity:1;fill-rule:nonzero;stroke:none"
       transform="matrix(1,0,0,-1,39.599,646.801)"><tspan
         id="tspan86"
         y="0"
         x="0 6.8911304 12.460224 18.825329 24.553823 30.918928 36.488022 42.216518 47.467804 51.986839">Languages:</tspan></text>
<text
       id="text92"
       style="font-variant:normal;font-weight:normal;font-size:9.96259975px;font-family:CMR10;-inkscape-font-specification:CMR10;writing-mode:lr-tb;fill:#000000;fill-opacity:1;fill-rule:nonzero;stroke:none"
       transform="matrix(1,0,0,-1,99.191288,646.801)"><tspan
         id="tspan90"
         y="0"
         x="0 7.2049522 13.290109 20.485098 28.234009 35.982918 42.068073 49.401546 54.936764 58.866016 62.740471 68.825623 75.606171 80.864433 84.738884 90.274109 95.255409 100.79063 106.88575 113.80178 119.06004 124.87421 129.30159 134.83682 139.26419 143.16655 145.93416 151.46938 155.34383 161.42899 166.54877 171.25111 175.95148 180.93277 186.46799 190.90533 194.79771 197.56534 203.10056 206.97501 213.07013 218.60535 226.35426">C,C++,Rust,Python,TypeScript,JavaScript,SQL</tspan></text>
<text
       id="text96"
       style="font-variant:normal;font-weight:normal;font-size:9.96259975px;font-family:CMBX10;-inkscape-font-specification:CMBX10;writing-mode:lr-tb;fill:#000000;fill-opacity:1;fill-rule:nonzero;stroke:none"
       transform="matrix(1,0,0,-1,39.599,633.849)"><tspan
         id="tspan94"
         y="0"
         x="0 7.0136704 12.264956 17.038038 23.403143 29.76825 35.496742 38.678799 44.407291 50.135788 53.317844 58.56913 63.088165 68.816658 75.069191 79.787476 85.356567 94.913689 100.15501 108.12111 113.8496 118.56789 124.6142 129.13322">Technologies/Frameworks:</tspan></text>
<text
       id="text102"
       style="font-variant:normal;font-weight:normal;font-size:9.96259975px;font-family:CMR10;-inkscape-font-specification:CMR10;writing-mode:lr-tb;fill:#000000;fill-opacity:1;fill-rule:nonzero;stroke:none"
       transform="matrix(1,0,0,-1,176.24801,633.849)"><tspan
         id="tspan98"
         y="0"
         x="0 7.4719501 12.732203 18.267424 22.694803 25.462414 28.506983 32.436234 38.381912 45.162457 50.420719 55.95594 59.848328 64.285667 68.21492 72.144165 74.911781 77.956352 81.885597 87.821312 95.154785 99.582161 104.56346 109.00081 112.87526 118.81098 126.28293 130.71031 135.96857 139.84302 142.61064 145.6552 149.58446 155.53014 161.89822 166.87953 172.41475 176.31709 179.0847 185.0304 194.43309 198.86047 204.39569 210.90227 218.09726 225.29224 231.19807 240.61073 245.03812 250.57333 256.10855 261.3688 265.51724 270.49655 274.92392 278.79837 282.72763 288.67331 295.04141 300.02271 302.79031 305.55792 312.7529 315.52054 321.05576 329.72919 336.92416 342.45938 347.99463 353.90045 359.43567 363.86304 366.63065 371.88892 374.65652 378.53098 381.8515 384.61911 389.04651 394.0278 397.93015 403.46536">Node.js,Express.js,React,Next.js,Tauri,WebRTC,WebSockets,TailwindCSS,Scikit-learn,</tspan><tspan
         id="tspan100"
         y="11.955"
         x="-136.64902 -129.31555 -126.54794 -122.39951 -116.86429 -110.76917 -103.98862 -100.09624 -95.114937 -86.803139 -81.277878 -77.403427 -74.072929 -67.714798 -62.454544 -57.473244 -54.705631 -49.447372 -46.679764 -42.805305 -36.72015 -29.939606 -24.681345 -18.036291 -10.564341 -1.4316256">Rich,Prompt-Toolkit,PyYAML</tspan></text>
<text
       id="text106"
       style="font-variant:normal;font-weight:normal;font-size:9.96259975px;font-family:CMBX10;-inkscape-font-specification:CMBX10;writing-mode:lr-tb;fill:#000000;fill-opacity:1;fill-rule:nonzero;stroke:none"
       transform="matrix(1,0,0,-1,39.599,608.943)"><tspan
         id="tspan104"
         y="0"
         x="0 7.0136704 13.060968 18.789463 21.971518 30.316193 43.042416 47.387108 53.752213 57.253071 61.971355 67.540451">Tools&amp;Infra:</tspan></text>
<text
       id="text112"
       style="font-variant:normal;font-weight:normal;font-size:9.96259975px;font-family:CMR10;-inkscape-font-specification:CMR10;writing-mode:lr-tb;fill:#000000;fill-opacity:1;fill-rule:nonzero;stroke:none"
       transform="matrix(1,0,0,-1,114.7449,608.943)"><tspan
         id="tspan108"
         y="0"
         x="0 6.226625 8.994235 14.260466 19.795687 28.371492 32.245949 39.717899 43.620247 47.768673 53.303894 57.178349 63.263508 72.67617 77.378517 82.63678 85.404388 90.385689 95.920906 101.45613 107.54128 114.32183 117.08944 122.90362 127.33099 137.57056 140.33817 144.24051 148.66789 154.75305 162.36348 167.62373 171.77216 176.76143 181.18881 185.09116 191.17632 198.99397 201.76158 205.63603 211.72119 218.77769 223.759 227.68825 233.22346 238.20477 243.73999 249.27521 253.70259 256.47021 262.56531 268.10052 272.52792 276.43027 279.19788 284.73309 288.60754 291.3652 296.90042 301.88171 307.97684 314.47842 319.45975 323.38898 327.26343 332.24475 336.14709 340.57446 346.10968 353.85861 360.08524 366.17038 371.7056 379.4545 385.68115 388.44876 392.32321 396.75058 402.8457 409.34927 412.11688 416.00928 420.44662 425.97189 430.95319 434.8924">Linux(Arch),Wayland,PipeWire,Docker,Git,Bash/ShellScripting,PostgreSQL,SQLite,Firebase</tspan><tspan
         id="tspan110"
         y="11.956"
         x="-75.145897 -67.67395 -62.138729 -53.836895 -51.069283 -42.216518 -36.681297 -29.070868 -21.321957 -15.226838 -7.8933678 -3.4659886 2.069232 7.6044526 12.031832 15.934182 22.019339 28.664392 33.091774 36.994122 41.421501 45.848881">AdminSDK,Render,Vercel</tspan></text>
<text
       id="text116"
       style="font-variant:normal;font-weight:normal;font-size:11.9552002px;font-family:CMBX12;-inkscape-font-specification:CMBX12;writing-mode:lr-tb;fill:#000000;fill-opacity:1;fill-rule:nonzero;stroke:none"
       transform="matrix(1,0,0,-1,28.8,582.101)"><tspan
         id="tspan114"
         y="0"
         x="0 8.8277197 18.983662 28.171234 36.998955 47.03056 52.039791 60.867508 71.383301 81.096901">EXPERIENCE</tspan></text>
<g
       transform="translate(28.8,578.315)"
       id="g118"><path
         id="path120"
         style="fill:none;stroke:#130810;stroke-width:0.398;stroke-linecap:butt;stroke-linejoin:miter;stroke-miterlimit:10;stroke-dasharray:none;stroke-opacity:1"
         d="M 0,0 H 553.68" /></g><text
       id="text124"
       style="font-variant:normal;font-weight:normal;font-size:10.90909958px;font-family:CMBX10;-inkscape-font-specification:CMBX10;writing-mode:lr-tb;fill:#000000;fill-opacity:1;fill-rule:nonzero;stroke:none"
       transform="matrix(1,0,0,-1,28.8,564.802)"><tspan
         id="tspan122"
         y="0"
         x="0 9.4090986 15.159286 20.107653 25.85784 31.956026 37.122578 42.349125 53.497135 62.981506 67.929878 72.878242 76.36261 81.310974 86.189529 92.287712 98.919357 107.97609 118.42701 128.04774 133.79793 140.06956 145.81976 149.30412 155.57686 162.89577 168.64597">ResearchAssistant/Developer</tspan></text>
<g
       transform="translate(28.8,560.547)"
       id="g126"><path
         id="path128"
         style="fill:none;stroke:#000000;stroke-width:0.43599999;stroke-linecap:butt;stroke-linejoin:miter;stroke-miterlimit:10;stroke-dasharray:none;stroke-opacity:1"
         d="M 0,0 H 173.816" /></g><text
       id="text132"
       style="font-variant:normal;font-weight:normal;font-size:9.96259975px;font-family:CMBX10;-inkscape-font-specification:CMBX10;writing-mode:lr-tb;fill:#000000;fill-opacity:1;fill-rule:nonzero;stroke:none"
       transform="matrix(1,0,0,-1,467.101,564.802)"><tspan
         id="tspan130"
         y="0"
         x="0 6.3651052 11.616391 17.981497 26.252447 31.980942 37.709438 43.437931 52.992065 62.536236 71.197723 77.562828 82.281113 85.463165 92.460899 98.189392 103.91788 109.64639">Sept2025–April2026</tspan></text>
<text
       id="text136"
       style="font-variant:normal;font-weight:normal;font-size:10.90909958px;font-family:CMBX10;-inkscape-font-specification:CMBX10;writing-mode:lr-tb;fill:#000000;fill-opacity:1;fill-rule:nonzero;stroke:none"
       transform="matrix(1,0,0,-1,28.8,550.409)"><tspan
         id="tspan134"
         y="0"
         x="0 9.6207352 15.370922 22.340746 28.438932 33.605484 38.484032 48.938221 54.688408 61.309143 70.365875 76.638611 84.661163 93.72226 99.994995 110.44918 117.41901 124.38883 129.26738 135.01756 144.3623 151.33212 156.90776 160.39214 166.14232 173.11214 178.68779 184.43797 192.10052 197.20708 201.96454 214.88091 221.36528 227.98711 234.95692 241.92674 248.89658 255.86639">DepartmentofComputerScience,IITJodhpur</tspan></text>
<g
       transform="translate(28.8,546.76)"
       id="g138"><path
         id="path140"
         style="fill:none;stroke:#000000;stroke-width:0.43599999;stroke-linecap:butt;stroke-linejoin:miter;stroke-miterlimit:10;stroke-dasharray:none;stroke-opacity:1"
         d="M 0,0 H 261.029" /></g><text
       id="text144"
       style="font-variant:normal;font-weight:normal;font-size:9.96259975px;font-family:CMR10;-inkscape-font-specification:CMR10;writing-mode:lr-tb;fill:#000000;fill-opacity:1;fill-rule:nonzero;stroke:none"
       transform="matrix(1,0,0,-1,517.556,550.409)"><tspan
         id="tspan142"
         y="0"
         x="0 5.1197801 10.380033 15.915254 21.450474 26.985695 32.520916 36.423267 42.508423 46.105915 51.641136 57.176357 59.94397">Jodhpur,India</tspan></text>
<text
       id="text148"
       style="font-variant:normal;font-weight:normal;font-size:5.9776001px;font-family:CMSY6;-inkscape-font-specification:CMSY6;writing-mode:lr-tb;fill:#000000;fill-opacity:1;fill-rule:nonzero;stroke:none"
       transform="matrix(1,0,0,-1,43.526,538.466)"><tspan
         id="tspan146"
         y="0"
         x="0">•</tspan></text>
<text
       id="text154"
       style="font-variant:normal;font-weight:normal;font-size:9.96259975px;font-family:CMR10;-inkscape-font-specification:CMR10;writing-mode:lr-tb;fill:#000000;fill-opacity:1;fill-rule:nonzero;stroke:none"
       transform="matrix(1,0,0,-1,52.8,537.164)"><tspan
         id="tspan150"
         y="0"
         x="0 7.1949897 12.17629 14.9439 17.71151 22.69281 28.506983 33.488285 37.390633 42.371933 46.246387 50.673767 59.446835 64.982056 70.517273 76.052498 80.479874 87.620071 95.230499 99.132851 106.30393 113.36044 118.89566 121.66327 126.92153 130.82388 136.36308 142.64551 148.18073 153.71594 157.59039 161.46486 166.44615 173.58635 177.4608 185.68991 191.21516 195.65251 200.63182 205.0592 207.82681 212.80811 221.58118 226.56247 235.33554 240.31683 245.85207 249.72652 254.70781 263.00964 267.99094 271.86542 276.29279 285.07581 292.82474 298.35995 302.78732 310.45255 317.64755 322.62885 327.8851 331.75955 334.52716 339.7934 345.32861 350.30994 355.84515 363.01224 369.51382 374.49512 378.42438 382.35364 385.12125 390.10056 397.77573 406.90845 411.88974 415.76419 418.53183 423.51312 432.28619 436.16064 443.35562 450.13617 459.26889 466.3812 474.68301 479.11041 484.64563 487.41324 491.84061 496.8219 502.83734 508.37256 512.79993 518.05817 520.82581 525.25317">CollaboratedunderDr.BhivrajSuttartodevelopanautomatedKneeContinuousPassiveMotion(CPM)medicaldevice</tspan><tspan
         id="tspan152"
         y="11.955"
         x="0 2.7676103 8.0238781 11.898334 16.325712 21.307013 25.209364 30.190662 34.065117 36.832729 41.81403 50.666794 54.596043 59.854305 63.783554 67.658012 72.095352 83.714729 89.249954 93.67733 97.606583 100.37419 105.35549 110.89071 115.31809 124.17086 127.21543 132.19673 139.41663 145.2308 149.65817 153.56053 157.48978 162.47108 168.0063 172.98759 175.7552 178.52281 182.9502 187.37758 196.24031 201.2216 205.12396 208.99841 214.53363 219.51494 225.31914 229.74652 235.28174 238.04935 245.80424 249.70659 254.13397 259.66919 264.65048 270.1857 272.95331 275.72095 278.47858 282.35303 287.33435 291.2088 293.97641 298.9577 304.49292">integrationsystemdesignedforpersonalizedorthopedicrehabilitation.</tspan></text>
<text
       id="text158"
       style="font-variant:normal;font-weight:normal;font-size:5.9776001px;font-family:CMSY6;-inkscape-font-specification:CMSY6;writing-mode:lr-tb;fill:#000000;fill-opacity:1;fill-rule:nonzero;stroke:none"
       transform="matrix(1,0,0,-1,43.526,513.348)"><tspan
         id="tspan156"
         y="0"
         x="0">•</tspan></text>
<text
       id="text164"
       style="font-variant:normal;font-weight:normal;font-size:9.96259975px;font-family:CMR10;-inkscape-font-specification:CMR10;writing-mode:lr-tb;fill:#000000;fill-opacity:1;fill-rule:nonzero;stroke:none"
       transform="matrix(1,0,0,-1,52.8,512.282)"><tspan
         id="tspan160"
         y="0"
         x="0 6.7805457 12.315766 17.297066 20.064676 25.599897 30.027277 34.454655 38.357006 42.784386 51.637154 55.511608 61.046829 68.801712 72.730965 77.989227 81.918472 85.792931 90.220306 98.522141 101.28976 108.53655 112.96393 117.94523 123.2015 127.07595 130.9783 135.95959 142.05472 144.82233 150.0786 153.95305 158.38043 162.28279 165.32736 170.30865 174.73604 182.48096 187.46227 192.99748 201.85025 209.32219 216.24719 223.44218 227.34454 232.32584 237.86105 243.66527 248.09265 251.995 258.09012 262.51749 266.44675 270.3212 275.30249 280.83774 283.60535 286.37296 290.30219 295.8374 298.60501 304.14026 312.43909 315.2067 319.90906 327.10403 330.42456 333.19217 338.17349 342.04794 346.47531 352.01053 356.43793 365.02368 368.95294 372.82739 377.80869 381.68314 389.42807 393.30252 397.20486 402.18619 406.33459 411.59286 414.36047 419.89569 428.2045 433.18579 438.71106 447.57379 453.10901 458.0903 461.99268 466.97397 475.27579 479.70319 483.57764 488.005">Engineeredthesystem’scontrolinterfaceandUIwrapper,establishinglow-latencystatetrackingandparameter</tspan><tspan
         id="tspan162"
         y="11.955"
         x="0 4.4273796 9.408679 14.9439 20.47912 25.460421 30.995642 34.897991 39.879292 43.753746 46.521358 51.502659 57.037876 64.284676 68.159126 76.467934 80.397186 85.378487 88.423058 92.850433 95.61805 104.19386 106.96146 112.21773 116.09219 120.51956 124.42191 127.46648 132.44778 136.87517 144.62009 151.81508 154.58269 158.45714 167.31987 171.74725 179.77014 185.5843 190.01169 195.54691 201.08212 205.50951 214.36227 219.89749 224.32487 229.58313 232.35074 236.77812 244.52306 250.05827 255.03957 258.94193 264.47714 271.40314 276.38443 280.2868 284.71417">confgurationstosafelyinterfacewithembeddeddevicehardware.</tspan></text>
<text
       id="text168"
       style="font-variant:normal;font-weight:normal;font-size:5.9776001px;font-family:CMSY6;-inkscape-font-specification:CMSY6;writing-mode:lr-tb;fill:#000000;fill-opacity:1;fill-rule:nonzero;stroke:none"
       transform="matrix(1,0,0,-1,43.526,488.466)"><tspan
         id="tspan166"
         y="0"
         x="0">•</tspan></text>
<text
       id="text174"
       style="font-variant:normal;font-weight:normal;font-size:9.96259975px;font-family:CMR10;-inkscape-font-specification:CMR10;writing-mode:lr-tb;fill:#000000;fill-opacity:1;fill-rule:nonzero;stroke:none"
       transform="matrix(1,0,0,-1,52.8,487.401)"><tspan
         id="tspan170"
         y="0"
         x="0 7.4719501 11.401199 15.330449 18.098059 22.027309 25.901764 30.329144 39.181908 41.94952 50.812248 55.793549 59.6959 63.844326 69.379547 72.147156 76.021614 80.44899 84.876373 88.750824 91.518433 97.053658 105.3525 113.66131 119.19653 123.08892 127.52626 133.05151 135.81912 140.25647 144.12097 146.88858 151.87784 159.62277 168.75548 178.29965 183.83487 186.60249 192.41666 196.84404 199.61165 202.37926 207.91447 215.65941 218.70398 222.60632 227.58763 235.88947 240.31683 247.24284 252.22414 256.1265 264.7023 268.57675 276.87561 282.41083 287.66907 293.20428 298.18561 306.48743 309.25504 313.68243 318.66373 321.43134 324.19894 332.7847 341.08655 346.06784 351.60306 354.36072 358.23517 363.21646 370.44632 375.98154 380.96286 384.83731 387.60492 392.03229 397.28857 404.48056 410.01578 414.99707 417.76471 426.62741 430.50189 436.02713 439.92947 444.35687 448.29608 453.82135 458.80264 461.57025 467.10547 471.03473 477.12982 482.11115 487.64636 491.52081 496.50211 504.80396 509.78525 513.65973 516.42731 521.96252">AssistedinarchitectingapredictiveMLpipelineframeworktodynamicallymonitorpatientpainthresholds,automating</tspan><tspan
         id="tspan172"
         y="11.955"
         x="0 3.9023504 8.32973 13.311029 16.07864 19.399176 23.27363 26.041241 34.343075 42.088001 47.069302 52.604519 55.64909 61.184311 65.113564 68.988014 77.289848 81.717232 86.983459 90.857918 98.104713 101.97916 110.27802 114.18036 119.16166 124.69688 129.67818 134.10556 137.4261 142.40739 145.45197 148.77251 157.07434 162.05563 165.93008 168.69771 173.679 182.54173 187.52303 193.05826 201.91101 205.84027 211.65443 216.08182 220.5092 229.36197 234.89719 239.87848 243.78084 248.76213 257.06396 261.49136 265.36581 269.79318 273.69553 277.62479">real-timeadjustmentstorange-of-motionandspeedparameters.</tspan></text>
<text
       id="text178"
       style="font-variant:normal;font-weight:normal;font-size:10.90909958px;font-family:CMBX10;-inkscape-font-specification:CMBX10;writing-mode:lr-tb;fill:#000000;fill-opacity:1;fill-rule:nonzero;stroke:none"
       transform="matrix(1,0,0,-1,28.8,458.945)"><tspan
         id="tspan176"
         y="0"
         x="0 6.8465509 13.816375 17.300741 20.785109 24.966566 31.93639 36.814941 42.913128 48.139675 58.949505 68.570236 74.320427 80.592064 86.342255 89.826622 96.09935 103.41827 109.16846 118.51319 128.96411 137.19066 143.28885 148.4554 153.34485 156.82922 162.40486 165.88924 172.85905 178.95724 185.57797">Full-StackDeveloper/Participant</tspan></text>
<g
       transform="translate(28.8,454.69)"
       id="g180"><path
         id="path182"
         style="fill:none;stroke:#000000;stroke-width:0.43599999;stroke-linecap:butt;stroke-linejoin:miter;stroke-miterlimit:10;stroke-dasharray:none;stroke-opacity:1"
         d="M 0,0 H 190.453" /></g><text
       id="text186"
       style="font-variant:normal;font-weight:normal;font-size:9.96259975px;font-family:CMBX10;-inkscape-font-specification:CMBX10;writing-mode:lr-tb;fill:#000000;fill-opacity:1;fill-rule:nonzero;stroke:none"
       transform="matrix(1,0,0,-1,537.876,458.945)"><tspan
         id="tspan184"
         y="0"
         x="0 6.2525277 11.503814 21.694557 27.423052 33.151546 38.880043">Feb2026</tspan></text>
<text
       id="text190"
       style="font-variant:normal;font-weight:normal;font-size:10.90909958px;font-family:CMBX10;-inkscape-font-specification:CMBX10;writing-mode:lr-tb;fill:#000000;fill-opacity:1;fill-rule:nonzero;stroke:none"
       transform="matrix(1,0,0,-1,28.8,444.552)"><tspan
         id="tspan188"
         y="0"
         x="0 4.7574587 11.727283 16.67565 22.948383 33.402573 40.372398 43.856762 49.954952 59.708778 69.52697 75.625153 80.851707 86.785164 92.883347 97.761902 104.73172 111.00446 122.15247 127.03101 135.60666 140.77321 146.52339 153.49323 162.55432 166.03868 173.00851 177.88705 183.1136 190.08344">InsomniacHackathon(PrepClutch)</tspan></text>
<g
       transform="translate(28.8,440.297)"
       id="g192"><path
         id="path194"
         style="fill:none;stroke:#000000;stroke-width:0.43599999;stroke-linecap:butt;stroke-linejoin:miter;stroke-miterlimit:10;stroke-dasharray:none;stroke-opacity:1"
         d="M 0,0 H 194.962" /></g><text
       id="text198"
       style="font-variant:normal;font-weight:normal;font-size:9.96259975px;font-family:CMSY10;-inkscape-font-specification:CMSY10;writing-mode:lr-tb;fill:#000000;fill-opacity:1;fill-rule:nonzero;stroke:none"
       transform="matrix(1,0,0,-1,227.083,444.552)"><tspan
         id="tspan196"
         y="0"
         x="0">|</tspan></text>
<text
       id="text202"
       style="font-variant:normal;font-weight:normal;font-size:9.96259975px;font-family:CMR10;-inkscape-font-specification:CMR10;writing-mode:lr-tb;fill:#000000;fill-opacity:1;fill-rule:nonzero;stroke:none"
       transform="matrix(1,0,0,-1,233.16816,444.552)"><tspan
         id="tspan200"
         y="0"
         x="0 7.8176522 10.585262 14.459718 19.715986 25.251205">Github</tspan></text>
<g
       transform="translate(233.171,443.157)"
       id="g204"><path
         id="path206"
         style="fill:none;stroke:#000000;stroke-width:0.398;stroke-linecap:butt;stroke-linejoin:miter;stroke-miterlimit:10;stroke-dasharray:none;stroke-opacity:1"
         d="M 0,0 H 30.787" /></g><text
       id="text210"
       style="font-variant:normal;font-weight:normal;font-size:9.96259975px;font-family:CMR10;-inkscape-font-specification:CMR10;writing-mode:lr-tb;fill:#000000;fill-opacity:1;fill-rule:nonzero;stroke:none"
       transform="matrix(1,0,0,-1,549.133,444.552)"><tspan
         id="tspan208"
         y="0"
         x="0 7.3334699 11.760849 20.062683 25.043983 28.91844">Remote</tspan></text>
<text
       id="text214"
       style="font-variant:normal;font-weight:normal;font-size:5.9776001px;font-family:CMSY6;-inkscape-font-specification:CMSY6;writing-mode:lr-tb;fill:#000000;fill-opacity:1;fill-rule:nonzero;stroke:none"
       transform="matrix(1,0,0,-1,43.526,432.003)"><tspan
         id="tspan212"
         y="0"
         x="0">•</tspan></text>
<text
       id="text220"
       style="font-variant:normal;font-weight:normal;font-size:9.96259975px;font-family:CMR10;-inkscape-font-specification:CMR10;writing-mode:lr-tb;fill:#000000;fill-opacity:1;fill-rule:nonzero;stroke:none"
       transform="matrix(1,0,0,-1,52.8,430.701)"><tspan
         id="tspan216"
         y="0"
         x="0 7.4719501 11.3743 15.522727 21.057947 23.825558 27.700012 32.127392 36.554771 40.429226 44.856606 53.719334 58.700634 64.235855 73.088623 78.62384 84.159065 86.926674 89.694283 96.886284 101.86758 110.72035 115.70165 120.12903 125.11033 130.64555 135.07294 143.37477 146.14238 153.89726 158.87857 164.41379 169.39508 172.16269 177.42096 181.29541 184.06302 188.4904 195.7372 201.27242 204.04002 209.02133 212.89578 215.94035 220.92165 224.82401 236.44337 243.63837 246.40598 250.28044 255.81566 258.58328 267.44598 272.42731 280.72614 286.26135 291.24268 296.77789 300.68024 307.92703 311.80148 317.3367 322.31799 329.51001 332.27762 337.81284 342.79413 347.22153 351.15076 355.02521 362.28198 367.8172 373.35242 377.28168 381.15613 385.05847 390.59369 395.02109 398.89554 404.43076 408.3331 412.76047 421.61325 428.3938 436.00421 442.50781 449.75461 453.62906 456.39667 460.82404 465.25143 469.12589 474.6611 478.56345 482.99084 486.92007 493.0152 498.27347 503.80869 506.57629 511.00366 515.43103 519.85846 523.78766">Architectedandbuiltanacademicanalyticsplatformwithin24hoursthatingestsunstructuredPDFs(lectures,quizzes,</tspan><tspan
         id="tspan218"
         y="11.955"
         x="0 6.7805457 14.252496 22.001406 25.930655 29.805111 35.890266 40.317646 45.575905 49.450363 53.352711 58.334011 62.761391 66.635849 73.892601 81.915489 87.450706 90.218315 94.092773 96.860382 100.18092 104.11017 109.09147 114.62669 118.52904 122.95641 130.70134 134.6037 139.30605 149.82854 153.70299 158.13037 163.38863 170.58063 175.8389 178.60651 186.90535 191.3427 196.86795 200.80716 204.68161 209.66292 221.2823 226.81752 231.79881 235.70117 239.63042 242.39803 247.93324 256.23209 260.16135 264.58871 268.49109 271.2587 276.79391 280.66837 284.5976 290.68277 295.66406 301.19928 310.06201 315.86621 320.30356 324.19595 328.13516 330.90277 334.83203 338.70648 345.95328 349.88254 353.75699 357.65933 363.19455 367.62192 371.4964 377.03162 380.93396 385.36133 394.21411 399.74933 404.73062 408.60507 416.90393 420.77838 429.08719 435.59079 438.3584 442.26074 446.68811 452.22333 457.20462 461.13388 465.56128">PYQs),extractsmulti-sourcerawtextviacustomparsingscripts,andpersistsstructureddatatoFirebase.</tspan></text>
<text
       id="text224"
       style="font-variant:normal;font-weight:normal;font-size:5.9776001px;font-family:CMSY6;-inkscape-font-specification:CMSY6;writing-mode:lr-tb;fill:#000000;fill-opacity:1;fill-rule:nonzero;stroke:none"
       transform="matrix(1,0,0,-1,43.526,406.885)"><tspan
         id="tspan222"
         y="0"
         x="0">•</tspan></text>
<text
       id="text230"
       style="font-variant:normal;font-weight:normal;font-size:9.96259975px;font-family:CMR10;-inkscape-font-specification:CMR10;writing-mode:lr-tb;fill:#000000;fill-opacity:1;fill-rule:nonzero;stroke:none"
       transform="matrix(1,0,0,-1,52.8,405.819)"><tspan
         id="tspan226"
         y="0"
         x="0 6.7805457 12.315766 17.297066 20.064676 25.599897 30.027277 34.454655 38.357006 42.784386 51.637154 59.945961 65.481178 70.462479 74.610909 79.590218 84.017593 89.552818 98.405579 103.9408 107.84315 113.10341 117.53078 121.95816 125.88741 129.81667 132.58427 138.11949 146.41833 150.3476 154.78493 158.68729 163.93558 166.70319 171.14053 178.88545 184.42068 188.34993 191.11754 196.65276 204.9516 208.82607 214.36128 222.11617 229.93382 234.36121 242.66304 245.43065 250.96587 257.05103 264.52298 271.30353 278.21857 282.09302 290.40182 295.38312 300.90839 305.88968 308.65729 313.91556 318.34293 326.09781 329.97226 334.39966 339.6579 343.53238 349.0676 354.04889 360.13403 365.66925 370.65057 374.52502 378.39948 382.82684 386.72922 392.26443 399.51123 404.49252 408.91989 412.82224 417.80356 421.74277 428.98956 434.52478 437.29239 441.22165 445.0961 450.07739 453.97974 456.74734 461.17474 466.15604 472.24118 477.7764 483.03665 487.46405 492.99927 501.30109 505.72849 510.98474 514.85919 518.78845">EngineeredabackendprocessingserviceusingtheGeminiAPItoanalyzetextualpatternsacrosshistoricaldocuments,</tspan><tspan
         id="tspan228"
         y="11.955"
         x="0 4.9812999 9.408679 14.9439 19.371279 23.27363 28.25493 32.129387 34.896996 40.432217 48.73106 53.71236 59.247581 63.122036 68.10334 76.405174 81.386475 85.260925 89.688309 95.223526 101.31865 106.85387 110.74625 115.72755 121.26277 126.24407 131.7793 134.54691 137.31451 140.08212 144.01138 147.88583 150.65344 158.40833 162.28279 167.26408 172.7993 175.56691 183.31184 190.22787 194.65526 197.42287 202.40416 207.67039 214.8624 220.39761 223.16522 227.09448 230.96893 234.87128 237.6389 243.17412 248.70934 252.58379 255.35139 260.3327 265.86792 269.79718">generatingautomated,probabilistictopicweightdistributions.</tspan></text>
<text
       id="text234"
       style="font-variant:normal;font-weight:normal;font-size:5.9776001px;font-family:CMSY6;-inkscape-font-specification:CMSY6;writing-mode:lr-tb;fill:#000000;fill-opacity:1;fill-rule:nonzero;stroke:none"
       transform="matrix(1,0,0,-1,43.526,382.003)"><tspan
         id="tspan232"
         y="0"
         x="0">•</tspan></text>
<text
       id="text240"
       style="font-variant:normal;font-weight:normal;font-size:9.96259975px;font-family:CMR10;-inkscape-font-specification:CMR10;writing-mode:lr-tb;fill:#000000;fill-opacity:1;fill-rule:nonzero;stroke:none"
       transform="matrix(1,0,0,-1,52.8,380.938)"><tspan
         id="tspan236"
         y="0"
         x="0 7.6104302 12.037809 17.57303 20.340641 25.042988 30.022295 34.449673 43.312405 51.611248 55.513599 59.940979 63.870228 69.684402 74.665703 80.20092 84.130173 86.897781 91.87709 99.622017 107.09396 112.35422 117.88943 122.31682 125.08443 128.129 132.05824 137.03955 143.8201 149.07835 154.61357 158.51593 162.9433 166.87256 174.12932 181.04535 185.47273 194.3255 199.86072 204.84201 208.77127 214.02753 219.84171 224.823 229.80431 233.70665 242.55942 245.60399 250.03137 255.01266 258.88712 264.42233 268.32471 271.09232 276.62753 284.93634 288.82874 293.26605 297.19531 301.06976 304.97214 307.73975 312.16711 316.04156 320.46893 329.32172 334.85693 340.39215 343.15976 348.14105 353.12238 358.65759 363.08496 370.30487 375.28616 379.71353 384.14093 388.5683 392.49756 399.7543 404.18167 409.16299 414.41925 418.2937 422.19604 427.17737 429.94498 436.03012 444.32898 449.8642 454.84549 458.71994 461.48755 466.47684 474.22174 481.00229 488.61273">DeployedaresponsiveNode.js/Expresswebdashboardfeaturingrestricteduploaderaccesscontrol,anativePDF</tspan><tspan
         id="tspan238"
         y="11.956"
         x="0 3.9023504 8.32973 13.86495 19.400171 23.827551 27.7299 30.497511 36.03273 44.331577 49.866798 54.848099 60.38332 64.810699 70.895851 75.877151 81.412376 90.275101 95.810326 101.06859 106.60381 111.58511 119.88694 122.65455 127.08193 133.16708 138.98126 143.40865 147.31099 151.73837 156.16574 161.42201 165.29646 170.27777 175.25906 179.68645 183.00699 188.54221 193.5235 197.45276 201.88013 210.73289 215.99117 218.75877 222.68802 228.22324 233.20454 239.29965 243.17412 247.07646 251.50385 257.03906 265.89185 271.42706 276.40836 280.33762 285.59387 291.40805 296.38934 301.37064 305.27298 310.80823 314.73746">renderingpane,anddynamic,percentage-basedvisualtrenddashboards.</tspan></text>
<text
       id="text244"
       style="font-variant:normal;font-weight:normal;font-size:11.9552002px;font-family:CMBX12;-inkscape-font-specification:CMBX12;writing-mode:lr-tb;fill:#000000;fill-opacity:1;fill-rule:nonzero;stroke:none"
       transform="matrix(1,0,0,-1,28.8,351.119)"><tspan
         id="tspan242"
         y="0"
         x="0 9.1875715 18.848568 28.949516 35.895489 44.723209 54.43681 63.790558">PROJECTS</tspan></text>
<g
       transform="translate(28.8,347.333)"
       id="g246"><path
         id="path248"
         style="fill:none;stroke:#130810;stroke-width:0.398;stroke-linecap:butt;stroke-linejoin:miter;stroke-miterlimit:10;stroke-dasharray:none;stroke-opacity:1"
         d="M 0,0 H 553.68" /></g><text
       id="text252"
       style="font-variant:normal;font-weight:normal;font-size:10.90909958px;font-family:CMBX10;-inkscape-font-specification:CMBX10;writing-mode:lr-tb;fill:#000000;fill-opacity:1;fill-rule:nonzero;stroke:none"
       transform="matrix(1,0,0,-1,28.8,331.885)"><tspan
         id="tspan250"
         y="0"
         x="0 9.4843712 12.968739 18.135288 23.013838 29.983662 36.081848 43.7444 55.677864 61.42696 68.047691 75.017517 78.501884 83.380432 89.653168">VirtualWaynitor</tspan></text>
<g
       transform="translate(28.8,328.236)"
       id="g254"><path
         id="path256"
         style="fill:none;stroke:#000000;stroke-width:0.43599999;stroke-linecap:butt;stroke-linejoin:miter;stroke-miterlimit:10;stroke-dasharray:none;stroke-opacity:1"
         d="M 0,0 H 94.818" /></g><text
       id="text260"
       style="font-variant:normal;font-weight:normal;font-size:9.96259975px;font-family:CMSY10;-inkscape-font-specification:CMSY10;writing-mode:lr-tb;fill:#000000;fill-opacity:1;fill-rule:nonzero;stroke:none"
       transform="matrix(1,0,0,-1,126.938,331.885)"><tspan
         id="tspan258"
         y="0"
         x="0">|</tspan></text>
<text
       id="text264"
       style="font-variant:normal;font-weight:normal;font-size:9.96259975px;font-family:CMR10;-inkscape-font-specification:CMR10;writing-mode:lr-tb;fill:#000000;fill-opacity:1;fill-rule:nonzero;stroke:none"
       transform="matrix(1,0,0,-1,133.02316,331.885)"><tspan
         id="tspan262"
         y="0"
         x="0 7.8176522 10.585262 14.459718 19.715986 25.251205">Github</tspan></text>
<g
       transform="translate(133.026,330.49)"
       id="g266"><path
         id="path268"
         style="fill:none;stroke:#000000;stroke-width:0.398;stroke-linecap:butt;stroke-linejoin:miter;stroke-miterlimit:10;stroke-dasharray:none;stroke-opacity:1"
         d="M 0,0 H 30.787" /></g><text
       id="text272"
       style="font-variant:normal;font-weight:normal;font-size:9.96259975px;font-family:CMSY10;-inkscape-font-specification:CMSY10;writing-mode:lr-tb;fill:#000000;fill-opacity:1;fill-rule:nonzero;stroke:none"
       transform="matrix(1,0,0,-1,167.135,331.885)"><tspan
         id="tspan270"
         y="0"
         x="0">|</tspan></text>
<text
       id="text276"
       style="font-variant:normal;font-weight:normal;font-size:8.96640015px;font-family:CMBX9;-inkscape-font-specification:CMBX9;writing-mode:lr-tb;fill:#000000;fill-opacity:1;fill-rule:nonzero;stroke:none"
       transform="matrix(1,0,0,-1,173.22018,331.885)"><tspan
         id="tspan274"
         y="0"
         x="0 10.074647 14.943402 20.837914 27.900747 35.280991 42.943676 49.432659 57.721199 63.313545 69.208054 74.076813 77.024063 80.266319 84.451828 90.940819 101.00649 105.87525 111.76976 117.66428 123.26559 127.68512 132.98875 137.8575 141.98384 146.16936 152.65834 160.93791 166.5464 172.43195 176.81741 179.76466 184.92213 190.81665">WebRTC,Node.js,WebSockets,Hyprland</tspan></text>
<text
       id="text280"
       style="font-variant:normal;font-weight:normal;font-size:9.96259975px;font-family:CMBX10;-inkscape-font-specification:CMBX10;writing-mode:lr-tb;fill:#000000;fill-opacity:1;fill-rule:nonzero;stroke:none"
       transform="matrix(1,0,0,-1,530.18972,331.885)"><tspan
         id="tspan278"
         y="0"
         x="0 8.6714468 15.026589 19.754839 22.936893 29.934624 35.66312 41.391613 47.12011">April2026</tspan></text>
<text
       id="text284"
       style="font-variant:normal;font-weight:normal;font-size:5.9776001px;font-family:CMSY6;-inkscape-font-specification:CMSY6;writing-mode:lr-tb;fill:#000000;fill-opacity:1;fill-rule:nonzero;stroke:none"
       transform="matrix(1,0,0,-1,43.526,320.124)"><tspan
         id="tspan282"
         y="0"
         x="0">•</tspan></text>
<text
       id="text290"
       style="font-variant:normal;font-weight:normal;font-size:9.96259975px;font-family:CMR10;-inkscape-font-specification:CMR10;writing-mode:lr-tb;fill:#000000;fill-opacity:1;fill-rule:nonzero;stroke:none"
       transform="matrix(1,0,0,-1,52.8,318.822)"><tspan
         id="tspan286"
         y="0"
         x="0 7.6104302 12.037809 17.017117 21.444496 24.212107 29.193407 35.00758 39.434959 48.287727 56.596535 62.131756 66.559135 71.540436 77.075653 79.843262 84.270645 88.199898 95.446686 100.70495 103.47256 107.37491 111.24937 116.78458 121.76588 127.85104 136.15288 141.13417 146.6694 149.43701 153.31146 158.29276 165.52263 168.55724 173.54849 180.76839 188.24034 193.4986 199.03381 202.93617 205.70378 210.68507 216.22031 225.07306 229.00232 232.87677 236.77913 241.2065 246.18781 254.48964 257.25723 262.79248 271.09131 276.62653 279.39413 283.29651 287.72388 292.15125 296.0257 298.7933 307.37909 311.25354 319.5524 325.08762 328.98996 333.69229 340.8873 344.81656 349.24393 353.14627 360.40305 365.93826 369.86749 372.6351 378.17032 386.46918 395.87189 400.30923 405.83447 412.34106 419.53604 430.05853 435.03986 440.57507 449.42783 456.20837 461.18967">DevelopedaheadlessvirtualmonitorforHyprlandstreamingdirectlytobrowsersusingWebRTCandP2P</tspan><tspan
         id="tspan288"
         y="11.955"
         x="0 4.4273796 9.408679 17.710514 25.733397 31.268616 36.803837 39.571445 43.998825 48.980125 52.85458 55.622192 60.603493 69.466225 76.661209 79.428818 83.303276 88.828537 93.809837 99.345055 106.54702 110.44937 114.87675 120.13501 125.67023 128.43784 132.34019 135.1078 140.64302 148.94186 154.47708 157.24469 162.77992 167.76122 170.52882 176.06404 183.31084 188.29214 195.51204 202.98399 207.96529 212.94659">communicationwithoutrequiringpluginsorX11.</tspan></text>
<text
       id="text294"
       style="font-variant:normal;font-weight:normal;font-size:5.9776001px;font-family:CMSY6;-inkscape-font-specification:CMSY6;writing-mode:lr-tb;fill:#000000;fill-opacity:1;fill-rule:nonzero;stroke:none"
       transform="matrix(1,0,0,-1,43.526,295.006)"><tspan
         id="tspan292"
         y="0"
         x="0">•</tspan></text>
<text
       id="text298"
       style="font-variant:normal;font-weight:normal;font-size:9.96259975px;font-family:CMR10;-inkscape-font-specification:CMR10;writing-mode:lr-tb;fill:#000000;fill-opacity:1;fill-rule:nonzero;stroke:none"
       transform="matrix(1,0,0,-1,52.8,293.94)"><tspan
         id="tspan296"
         y="0"
         x="0 7.0565095 12.59173 15.359341 18.126951 25.318953 33.627762 41.099709 46.349998 51.88522 56.312599 59.080212 62.124783 69.381538 78.784241 83.211617 88.746841 94.282059 99.542313 103.69074 108.68001 113.10739 120.29939 124.22864 126.99625 131.97755 137.51277 142.49406 145.26169 148.0293 153.56451 161.86336 165.7926 170.21999 174.12234 179.10164 183.52902 190.75888 194.63333 202.93219 206.83453 211.26192 214.02953 218.73187 227.31764 236.72034 241.14772 246.68294 253.18951 260.38449 270.89703 279.19888 283.62625 287.55551 291.49472 296.47601 301.45731 305.8847 309.81393 315.89911 320.32648 325.86169 330.84299 336.37823 339.14584 341.91345 347.44867 355.7475 358.51511 363.21747 370.41245 373.733 376.50061 381.4819 385.35635 389.78372 395.31897 399.74634 408.33209 412.26135 416.68872 420.59109 425.01846 429.44583 438.29861 442.72598 447.70728 453.24252 457.11697 462.65219 466.55453 474.30942 479.55771 482.32532">BuiltaNode.jsWebSocketsignalingservertorelayWebRTCmessages,enablinglow-latencyscreencapturevia</tspan></text>
<text
       id="text302"
       style="font-variant:normal;font-weight:normal;font-size:9.96259975px;font-family:CMTT10;-inkscape-font-specification:CMTT10;writing-mode:lr-tb;fill:#000000;fill-opacity:1;fill-rule:nonzero;stroke:none"
       transform="matrix(1,0,0,-1,52.8,281.985)"><tspan
         id="tspan300"
         y="0"
         x="0 5.2303648 10.46073 15.691095 20.921459 26.151825 31.382191 36.612556 41.842918 47.073284 52.30365 57.534016 62.764381 67.994743 73.225113">getDisplayMedia</tspan></text>
<text
       id="text306"
       style="font-variant:normal;font-weight:normal;font-size:9.96259975px;font-family:CMR10;-inkscape-font-specification:CMR10;writing-mode:lr-tb;fill:#000000;fill-opacity:1;fill-rule:nonzero;stroke:none"
       transform="matrix(1,0,0,-1,134.57302,281.985)"><tspan
         id="tspan304"
         y="0"
         x="0 4.9812999 10.516521 19.37925 26.149832 28.917442 34.731617 39.158997 49.398556 52.166164 56.068516 60.495895">andPipeWire.</tspan></text>
<text
       id="text310"
       style="font-variant:normal;font-weight:normal;font-size:10.90909958px;font-family:CMBX10;-inkscape-font-specification:CMBX10;writing-mode:lr-tb;fill:#000000;fill-opacity:1;fill-rule:nonzero;stroke:none"
       transform="matrix(1,0,0,-1,28.8,262.034)"><tspan
         id="tspan308"
         y="0"
         x="0 9.8334627 16.454195 23.074928 29.695662 34.862209">Kyvyrn</tspan></text>
<g
       transform="translate(28.8,258.386)"
       id="g312"><path
         id="path314"
         style="fill:none;stroke:#000000;stroke-width:0.43599999;stroke-linecap:butt;stroke-linejoin:miter;stroke-miterlimit:10;stroke-dasharray:none;stroke-opacity:1"
         d="M 0,0 H 41.833" /></g><text
       id="text318"
       style="font-variant:normal;font-weight:normal;font-size:9.96259975px;font-family:CMSY10;-inkscape-font-specification:CMSY10;writing-mode:lr-tb;fill:#000000;fill-opacity:1;fill-rule:nonzero;stroke:none"
       transform="matrix(1,0,0,-1,73.954,262.034)"><tspan
         id="tspan316"
         y="0"
         x="0">|</tspan></text>
<text
       id="text322"
       style="font-variant:normal;font-weight:normal;font-size:9.96259975px;font-family:CMR10;-inkscape-font-specification:CMR10;writing-mode:lr-tb;fill:#000000;fill-opacity:1;fill-rule:nonzero;stroke:none"
       transform="matrix(1,0,0,-1,80.039156,262.034)"><tspan
         id="tspan320"
         y="0"
         x="0 7.8176522 10.585262 14.459718 19.715986 25.251205">Github</tspan></text>
<g
       transform="translate(80.042,260.64)"
       id="g324"><path
         id="path326"
         style="fill:none;stroke:#000000;stroke-width:0.398;stroke-linecap:butt;stroke-linejoin:miter;stroke-miterlimit:10;stroke-dasharray:none;stroke-opacity:1"
         d="M 0,0 H 30.787" /></g><text
       id="text330"
       style="font-variant:normal;font-weight:normal;font-size:9.96259975px;font-family:CMSY10;-inkscape-font-specification:CMSY10;writing-mode:lr-tb;fill:#000000;fill-opacity:1;fill-rule:nonzero;stroke:none"
       transform="matrix(1,0,0,-1,114.15,262.034)"><tspan
         id="tspan328"
         y="0"
         x="0">|</tspan></text>
<text
       id="text334"
       style="font-variant:normal;font-weight:normal;font-size:8.96640015px;font-family:CMBX9;-inkscape-font-specification:CMBX9;writing-mode:lr-tb;fill:#000000;fill-opacity:1;fill-rule:nonzero;stroke:none"
       transform="matrix(1,0,0,-1,120.23518,262.034)"><tspan
         id="tspan332"
         y="0"
         x="0 7.9505067 12.819263 17.976736 22.692165 26.818502 33.307487 40.391838 45.991356 52.181759 57.050514 62.945026 67.660454 72.036957 74.984207 80.878723 85.005058 91.485077 97.98661 103.14409 109.0386 113.4151 116.36235 122.84237 130.79288 136.68739 140.87291 144.99924 151.48822 159.49432 162.44157 166.56792 171.43668 177.91669 184.40926 189.56673 192.51399 195.46124 203.12393 206.07118 211.9657 221.40193 229.06462 234.95914">React,TypeScript,Tauri,Rust,Vite,TailwindCSS</tspan></text>
<text
       id="text338"
       style="font-variant:normal;font-weight:normal;font-size:9.96259975px;font-family:CMBX10;-inkscape-font-specification:CMBX10;writing-mode:lr-tb;fill:#000000;fill-opacity:1;fill-rule:nonzero;stroke:none"
       transform="matrix(1,0,0,-1,537.17778,262.034)"><tspan
         id="tspan336"
         y="0"
         x="0 8.7860165 14.037303 22.944864 28.673359 34.401855 40.130348">Dec2025</tspan></text>
<text
       id="text342"
       style="font-variant:normal;font-weight:normal;font-size:5.9776001px;font-family:CMSY6;-inkscape-font-specification:CMSY6;writing-mode:lr-tb;fill:#000000;fill-opacity:1;fill-rule:nonzero;stroke:none"
       transform="matrix(1,0,0,-1,43.526,250.273)"><tspan
         id="tspan340"
         y="0"
         x="0">•</tspan></text>
<text
       id="text348"
       style="font-variant:normal;font-weight:normal;font-size:9.96259975px;font-family:CMR10;-inkscape-font-specification:CMR10;writing-mode:lr-tb;fill:#000000;fill-opacity:1;fill-rule:nonzero;stroke:none"
       transform="matrix(1,0,0,-1,52.8,248.971)"><tspan
         id="tspan344"
         y="0"
         x="0 7.0565095 12.59173 15.359341 18.126951 25.318953 33.627762 36.39537 39.162979 44.144279 49.400547 52.996052 59.912086 64.33947 67.107079 72.088379 77.344643 81.219101 87.314217 93.54084 96.308456 101.56472 107.09995 112.3582 115.67873 121.21396 125.11631 129.04556 136.23756 141.77278 146.20016 150.12941 155.38766 159.26213 164.24342 173.09619 178.07748 183.61272 189.14793 191.91554 194.68315 199.11053 204.09183 207.96629 210.7339 215.71519 224.57793 231.77292 235.67526 240.65657 246.19179 251.996 256.42337 263.65323 269.18845 273.0629 275.83054 278.59814 281.36575 285.79312 288.56073 294.09595 302.39481 308.76288 313.7442 319.27942 323.18176 329.26691 334.24823 339.78345 348.6362 355.96967 361.50488 365.43414 372.62616 376.50061 384.80942 389.23679 394.21808 399.47437 404.45367 408.88104 412.78339 419.98535 426.9014 431.32877 440.18155 445.16284 450.69806 456.23328 459.00089 461.76849 466.19589 471.17719 475.05164 477.81924 482.80054 488.33575 495.58255 498.35016 503.61639 507.49084">Builtalightweight,Linux-frstdesktopapplicationwrapperutilizingTauriandRusttoconvertwebapplicationsinto</tspan><tspan
         id="tspan346"
         y="11.955"
         x="0 5.5352206 10.516521 14.390976 17.158587 22.137894 26.565273 29.885807 32.930378 37.357758 41.785137 44.552746 47.320358 52.855579 61.154423 66.689644 71.117027 75.056236 80.314499 84.18895 89.17025 98.023018 103.00432 108.53954 114.07476 121.32156 128.51654 131.28415 135.15862 140.69383 145.67513 151.21036 158.40234 165.18289 167.9505 172.37788 176.80527 180.67972 184.58208 189.56337 198.4261 203.12845 208.10776 212.53514 216.43748 221.9727 226.40009 231.38138 236.91661">native-feelingdesktopappswithoutElectronoverhead.</tspan></text>
<text
       id="text352"
       style="font-variant:normal;font-weight:normal;font-size:5.9776001px;font-family:CMSY6;-inkscape-font-specification:CMSY6;writing-mode:lr-tb;fill:#000000;fill-opacity:1;fill-rule:nonzero;stroke:none"
       transform="matrix(1,0,0,-1,43.526,225.155)"><tspan
         id="tspan350"
         y="0"
         x="0">•</tspan></text>
<text
       id="text358"
       style="font-variant:normal;font-weight:normal;font-size:9.96259975px;font-family:CMR10;-inkscape-font-specification:CMR10;writing-mode:lr-tb;fill:#000000;fill-opacity:1;fill-rule:nonzero;stroke:none"
       transform="matrix(1,0,0,-1,52.8,224.09)"><tspan
         id="tspan354"
         y="0"
         x="0 3.5974948 11.899329 17.434549 20.20216 24.629539 32.931374 37.358753 42.615021 46.489475 50.916855 59.739735 63.678947 71.980782 76.962082 80.864433 88.026543 93.561768 97.464119 102.16647 109.36145 113.2907 117.71808 124.90809 129.33546 134.8707 139.85199 142.6196 148.15482 155.86986 161.40508 165.83246 169.70691 174.14426 178.57164 182.44609 185.2137 190.19501 195.73022 201.78549 207.59966 212.02704 215.9294 219.24992 224.23123 229.76645 238.58932 241.35693 245.28618 250.26749 253.0351 258.01639 261.89084 266.31824 275.15106 279.57846 284.55975 290.09497 295.63019 300.61148 306.13675 310.03909 315.02039 318.89487 321.66248 326.64377 332.17899 338.24423 343.22552 348.76074 357.58362 365.86255 369.76489 374.19226 378.12152 383.92572 388.90701 394.44226 398.37149 401.1391 406.12839 413.84341 421.17688 425.60428 430.58557 435.01294 438.88739 442.20795 447.74316 452.72446 456.65372 461.08109 469.90396 472.67157 477.92783 481.80231 486.22968 490.13202 493.17661 498.1579 502.58527 510.31027 517.50525 520.27289 524.14734">Implementedsmartbrowserenginedetection,per-appisolatedconfguration,andaresponsiveReact-basedinterfacewith</tspan><tspan
         id="tspan356"
         y="11.956"
         x="0 6.368094 11.349394 14.117004 16.884615 24.079605 26.847214 32.382435 41.235203 48.430191 53.965412 59.500633">TailwindCSS.</tspan></text>
<text
       id="text362"
       style="font-variant:normal;font-weight:normal;font-size:10.90909958px;font-family:CMBX10;-inkscape-font-specification:CMBX10;writing-mode:lr-tb;fill:#000000;fill-opacity:1;fill-rule:nonzero;stroke:none"
       transform="matrix(1,0,0,-1,28.8,192.065)"><tspan
         id="tspan360"
         y="0"
         x="0 9.4843712 16.454195 19.938562 24.12002 31.665844 37.938576 44.036762 51.006588 56.756775">Ani-Loader</tspan></text>
<g
       transform="translate(28.8,190.538)"
       id="g364"><path
         id="path366"
         style="fill:none;stroke:#000000;stroke-width:0.43599999;stroke-linecap:butt;stroke-linejoin:miter;stroke-miterlimit:10;stroke-dasharray:none;stroke-opacity:1"
         d="M 0,0 H 61.924" /></g><text
       id="text370"
       style="font-variant:normal;font-weight:normal;font-size:9.96259975px;font-family:CMSY10;-inkscape-font-specification:CMSY10;writing-mode:lr-tb;fill:#000000;fill-opacity:1;fill-rule:nonzero;stroke:none"
       transform="matrix(1,0,0,-1,94.044,192.065)"><tspan
         id="tspan368"
         y="0"
         x="0">|</tspan></text>
<text
       id="text374"
       style="font-variant:normal;font-weight:normal;font-size:9.96259975px;font-family:CMR10;-inkscape-font-specification:CMR10;writing-mode:lr-tb;fill:#000000;fill-opacity:1;fill-rule:nonzero;stroke:none"
       transform="matrix(1,0,0,-1,100.12916,192.065)"><tspan
         id="tspan372"
         y="0"
         x="0 7.8176522 10.585262 14.459718 19.725948 25.251205">Github</tspan></text>
<g
       transform="translate(100.133,190.67)"
       id="g376"><path
         id="path378"
         style="fill:none;stroke:#000000;stroke-width:0.398;stroke-linecap:butt;stroke-linejoin:miter;stroke-miterlimit:10;stroke-dasharray:none;stroke-opacity:1"
         d="M 0,0 H 30.787" /></g><text
       id="text382"
       style="font-variant:normal;font-weight:normal;font-size:9.96259975px;font-family:CMSY10;-inkscape-font-specification:CMSY10;writing-mode:lr-tb;fill:#000000;fill-opacity:1;fill-rule:nonzero;stroke:none"
       transform="matrix(1,0,0,-1,134.241,192.065)"><tspan
         id="tspan380"
         y="0"
         x="0">|</tspan></text>
<text
       id="text386"
       style="font-variant:normal;font-weight:normal;font-size:8.96640015px;font-family:CMBX9;-inkscape-font-specification:CMBX9;writing-mode:lr-tb;fill:#000000;fill-opacity:1;fill-rule:nonzero;stroke:none"
       transform="matrix(1,0,0,-1,140.32618,192.065)"><tspan
         id="tspan384"
         y="0"
         x="0 7.9505067 13.845018 18.030533 22.156872 28.645855 34.540367 37.487621 40.434879 46.033497 50.159836 56.639851 64.179695 68.306038 72.682533 75.924782 80.110298 86.599281 91.902908 96.771667 102.37119 107.23994 111.95537 118.43539 126.40562 133.36803 143.42474">Rust,Slint,Btrfs,kexec,QEMU</tspan></text>
<text
       id="text390"
       style="font-variant:normal;font-weight:normal;font-size:9.96259975px;font-family:CMBX10;-inkscape-font-specification:CMBX10;writing-mode:lr-tb;fill:#000000;fill-opacity:1;fill-rule:nonzero;stroke:none"
       transform="matrix(1,0,0,-1,534.12845,192.065)"><tspan
         id="tspan388"
         y="0"
         x="0 10.87617 16.126461 25.998402 31.726896 37.455391 43.183887">May2026</tspan></text>
<text
       id="text394"
       style="font-variant:normal;font-weight:normal;font-size:5.9776001px;font-family:CMSY6;-inkscape-font-specification:CMSY6;writing-mode:lr-tb;fill:#000000;fill-opacity:1;fill-rule:nonzero;stroke:none"
       transform="matrix(1,0,0,-1,43.526,180.423)"><tspan
         id="tspan392"
         y="0"
         x="0">•</tspan></text>
<text
       id="text400"
       style="font-variant:normal;font-weight:normal;font-size:9.96259975px;font-family:CMR10;-inkscape-font-specification:CMR10;writing-mode:lr-tb;fill:#000000;fill-opacity:1;fill-rule:nonzero;stroke:none"
       transform="matrix(1,0,0,-1,52.8,179.121)"><tspan
         id="tspan396"
         y="0"
         x="0 6.7805457 12.315766 17.297066 20.064676 25.599897 30.027277 34.454655 38.357006 42.784386 51.637154 59.945961 65.481178 68.238831 73.220131 78.755348 82.075882 87.611107 93.146324 97.573708 100.34132 103.10892 106.71439 115.2902 121.10437 126.35466 131.33595 135.21042 137.97803 142.95932 147.94063 153.47585 157.90323 165.13309 169.03543 174.57065 179.82692 183.70137 186.46899 194.77083 202.51575 209.71074 212.47835 216.3528 225.21553 232.549 238.08423 242.01347 249.20547 254.18677 259.72198 268.57477 276.8736 282.40881 287.39014 291.29248 296.8277 303.75369 308.73499 312.63736 317.06473 320.38525 325.36655 329.79395 334.22131 338.64871 341.41632 345.84369 349.74603 354.72733 358.60181 363.02917 371.88193 377.41718 380.18478 382.95239 388.20865 395.41061 402.88257 406.48007 412.56522 418.10043 421.97488 424.74249 427.5101 430.27771 434.70511 437.47272 443.00793 451.30676 457.53339 460.30103 465.55728 471.0925 479.67828 484.65756 489.08496 494.3432 498.7706 506.51553 509.56009 514.54138">Engineeredahigh-fdelitybootloaderruntimewithRustandahardware-acceleratedSlintUI,utilizingLinuxkexecfor</tspan><tspan
         id="tspan398"
         y="11.955"
         x="0 3.9292495 8.3566284 13.337929 21.639763 24.407373 28.834753 32.764004 40.02076 45.000069 49.427448 53.3298 58.865017 63.292397 69.377556 74.912773 79.894073 85.429298 90.964516 95.945816 101.757 105.68625 111.77141 117.03764 122.2959 127.82115 132.80246 136.74167 140.67091 143.43852 148.97374 157.2726 161.20184 163.96945 168.6718 179.18434 183.61171 188.60298 191.36063 200.22336 206.03752 211.28781 216.26912 223.47108 229.0063 233.98759 237.88995 243.42517 250.3412 255.32251 259.22485 266.96979 269.7374 275.27261 278.04022 281.91467 284.68228 289.6636 292.43121 295.19882 299.62619 304.60748 308.48193 311.24954 316.23087 321.76608">seamlesskernelhandofs,bypassingslowcoldboothardwareinitialization.</tspan></text>
<text
       id="text404"
       style="font-variant:normal;font-weight:normal;font-size:5.9776001px;font-family:CMSY6;-inkscape-font-specification:CMSY6;writing-mode:lr-tb;fill:#000000;fill-opacity:1;fill-rule:nonzero;stroke:none"
       transform="matrix(1,0,0,-1,43.526,155.305)"><tspan
         id="tspan402"
         y="0"
         x="0">•</tspan></text>
<text
       id="text410"
       style="font-variant:normal;font-weight:normal;font-size:9.96259975px;font-family:CMR10;-inkscape-font-specification:CMR10;writing-mode:lr-tb;fill:#000000;fill-opacity:1;fill-rule:nonzero;stroke:none"
       transform="matrix(1,0,0,-1,52.8,154.239)"><tspan
         id="tspan406"
         y="0"
         x="0 7.6104302 12.037809 17.017117 21.444496 24.212107 29.193407 35.00758 39.434959 48.287727 53.822945 58.804245 62.678703 65.446312 70.425621 78.180504 85.237015 89.111473 93.013824 96.058395 103.30519 107.23444 112.76966 118.02592 123.0152 127.9965 130.7641 136.28937 144.60117 152.34608 160.64792 165.62923 171.16444 176.42072 180.29517 183.06277 188.59799 196.89684 201.87814 207.41336 216.27609 221.81131 226.79262 230.69496 234.62421 237.39182 242.92705 251.22589 253.9935 258.97479 263.95609 266.72369 271.15109 277.23624 282.21753 287.75278 296.60553 301.0329 304.97214 308.84659 313.82788 319.35315 322.12076 324.88837 328.82758 334.35281 338.79016 347.64294 355.94177 360.36917 365.35046 373.65228 379.1875 383.08987 387.51724 393.05246 397.47986 403.01508 406.94431 409.71191 414.69122 422.44611 430.19504 436.97559 446.10828 456.8978 460.77225 465.19962 469.12888 473.00333 475.77094 481.30615 489.60501 495.14023 497.90784 503.72202 508.14938 510.91699 513.68463 519.21985">DevelopednativeBtrfssubvolumemountingandparsinglogic,andestablishedacomprehensiveQEMUtestingpipeline</tspan><tspan
         id="tspan408"
         y="11.955"
         x="0 7.1949897 9.9625998 13.837055 22.689821 30.991655 36.251907 40.400337 48.986103 54.521324 59.502625 63.404976 67.279427 70.047043 73.921494 76.68911 81.670403 87.195663 94.452423 98.326874 106.62572 111.0531 119.08595 124.61121 127.37881 132.36011 136.23457 143.98946 149.52467 153.42703 158.68729 164.21254 169.74776 174.17514 178.04959 180.8172 185.79851 191.33372 194.65427 198.59348 203.02086 208.00215 210.76976 218.51469 224.04991 228.47728 234.01251 236.78012 241.48247 246.74072 255.04256 259.46994 264.7262 268.60068 272.52991">withmockpartitionstoemulateproduction-scaledeployments.</tspan></text>
<text
       id="text414"
       style="font-variant:normal;font-weight:normal;font-size:11.9552002px;font-family:CMBX12;-inkscape-font-specification:CMBX12;writing-mode:lr-tb;fill:#000000;fill-opacity:1;fill-rule:nonzero;stroke:none"
       transform="matrix(1,0,0,-1,28.8,108.48)"><tspan
         id="tspan412"
         y="0"
         x="0 9.7853308 19.498932 30.014725 35.023952 43.851673 54.007614 62.835335 75.592728 84.420448 94.936241 104.28999">ACHIEVEMENTS</tspan></text>
<g
       transform="translate(28.8,104.695)"
       id="g416"><path
         id="path418"
         style="fill:none;stroke:#130810;stroke-width:0.398;stroke-linecap:butt;stroke-linejoin:miter;stroke-miterlimit:10;stroke-dasharray:none;stroke-opacity:1"
         d="M 0,0 H 553.68" /></g><text
       id="text422"
       style="font-variant:normal;font-weight:normal;font-size:5.9776001px;font-family:CMSY6;-inkscape-font-specification:CMSY6;writing-mode:lr-tb;fill:#000000;fill-opacity:1;fill-rule:nonzero;stroke:none"
       transform="matrix(1,0,0,-1,43.526,88.531)"><tspan
         id="tspan420"
         y="0"
         x="0">•</tspan></text>
<text
       id="text426"
       style="font-variant:normal;font-weight:normal;font-size:9.96259975px;font-family:CMBX10;-inkscape-font-specification:CMBX10;writing-mode:lr-tb;fill:#000000;fill-opacity:1;fill-rule:nonzero;stroke:none"
       transform="matrix(1,0,0,-1,52.8,87.229)"><tspan
         id="tspan424"
         y="0"
         x="0 5.7284951 10.24753 18.51848 26.35008 29.532135 35.101227 40.193115 49.270039 58.814209 70.658745 73.840797 80.205902 86.571007 91.822296">1stPlace/Winner</tspan></text>
<text
       id="text434"
       style="font-variant:normal;font-weight:normal;font-size:9.96259975px;font-family:CMR10;-inkscape-font-specification:CMR10;writing-mode:lr-tb;fill:#000000;fill-opacity:1;fill-rule:nonzero;stroke:none"
       transform="matrix(1,0,0,-1,149.34058,87.229)"><tspan
         id="tspan428"
         y="0"
         x="0 6.085156 11.761846 15.664196 20.091576 24.020824 29.556046 37.85788 42.285259 51.138027 57.918571 60.68618 65.113564 69.540939 73.415398 77.317749 80.085358 84.512733 89.494034 95.589157 106.65561 113.43616 116.20377 120.63115 125.05853 128.93298 132.83533 137.81664 143.35185 146.11946 150.54684 157.79364 164.57419 170.10941 175.0907 177.85831 183.39354 187.82091 192.24829 196.15065 198.91826 204.45348 212.76228 219.54283 224.80109 230.6053 238.91411 242.78856 247.76987 252.75116 257.73245 262.71378 266.58823 273.77924 281.38965 285.81702 290.79633 295.22372 297.99133 302.97263 308.7868 313.21417 322.06696 327.04825 335.91098 340.89227 346.42749 350.30194 355.28326 363.58508 368.56638 372.44086 376.86823 385.72098 390.14838 395.12967 403.43149 408.96674 414.50195">,FreshmenElectrical&amp;ElectronicsEngineeringExpo(2024):Developedanautomatedcampus</tspan><tspan
         id="tspan430"
         y="11.955"
         x="-96.540581 -91.55928 -87.68483 -83.810371 -79.382996 -73.847771 -68.312553 -63.331253 -57.796032 -53.368652 -45.623726 -40.088505 -36.186157 -31.204855 -27.3304 -22.3491 -18.753599 -13.495337 -7.6811647 0.073723242 5.5989814 9.5381937 12.305803 17.831062 26.13987 31.12117 39.973938 47.445885 51.348236 56.883457 62.418678 65.186287 70.721512 79.020355 87.322189 90.089798 94.517181 98.419533 103.67978 108.10716 113.08846 118.34473 122.21918 126.12154 131.10283 133.87044 136.63806 141.06543 148.29529 153.2766 158.81181 167.66458 172.64587 181.49864 188.83212 195.33571 198.9332 209.86118 213.76352 218.20087 223.18216 228.70743 233.14476 240.36465 248.66649 253.92674 259.46198 264.99719 267.7648 275.50974 279.38419 287.68301 291.61227 297.14749 301.57489 306.00226 310.42963 314.35889 318.28815 321.3327 326.86792 329.63553 332.40314 340.98892 344.91815 349.34555 354.32684 363.1796 368.16092 373.69614 382.54889 385.3165 390.29782 398.60663 403.034 408.29227 411.05988 414.98911 418.86356 421.63116 427.16641">attendanceprototypeusinganArduinomicrocontrollerandanRFIDreadermoduletosuccessfullyscanandlogexisting</tspan><tspan
         id="tspan432"
         y="23.91"
         x="-96.540581 -92.611336 -88.736877 -83.20166 -77.666435 -73.239059 -67.982788 -60.790791 -57.193295 -46.255356 -41.827976 -36.846676 -32.944324 -24.091558 -18.556339 -13.575039 -9.7005835 -4.7192836">studentIDcarddata.</tspan></text>
<text
       id="text438"
       style="font-variant:normal;font-weight:normal;font-size:5.9776001px;font-family:CMSY6;-inkscape-font-specification:CMSY6;writing-mode:lr-tb;fill:#000000;fill-opacity:1;fill-rule:nonzero;stroke:none"
       transform="matrix(1,0,0,-1,43.526,49.465)"><tspan
         id="tspan436"
         y="0"
         x="0">•</tspan></text>
<text
       id="text442"
       style="font-variant:normal;font-weight:normal;font-size:9.96259975px;font-family:CMBX10;-inkscape-font-specification:CMBX10;writing-mode:lr-tb;fill:#000000;fill-opacity:1;fill-rule:nonzero;stroke:none"
       transform="matrix(1,0,0,-1,52.8,48.4)"><tspan
         id="tspan440"
         y="0"
         x="0 8.6614847 13.753369 19.322462 25.687569 30.938854 40.486015 43.668068 52.57563 61.361645 64.553665 69.072701 73.527969 76.71003 83.075134 88.167015 92.622292 95.804344 101.53284">AcademicDistinction</tspan></text>
<text
       id="text448"
       style="font-variant:normal;font-weight:normal;font-size:9.96259975px;font-family:CMR10;-inkscape-font-specification:CMR10;writing-mode:lr-tb;fill:#000000;fill-opacity:1;fill-rule:nonzero;stroke:none"
       transform="matrix(1,0,0,-1,160.69795,48.4)"><tspan
         id="tspan444"
         y="0"
         x="0 6.085156 12.865702 16.768051 19.535662 25.070883 29.498262 32.265873 37.801094 40.568703 44.996082 52.242878 57.224178 63.586296 70.791245 75.772545 84.074379 89.609604 95.134857 99.009315 103.44666 110.66655 116.20177 121.46004 125.38928 129.26373 133.69112 141.99295 149.23975 153.1142 159.89474 167.08974 175.95247 180.93376 184.80823 191.99922 197.53445 201.96182 206.38921 211.92442 215.82678 220.25415 229.10692 234.08823 242.95096 245.71857 253.19051 259.27567 264.25696 268.15933 273.14062 278.67584 286.42078 289.18839 298.04114 302.46851 307.44983 311.35217 319.10706 323.03632 328.29456 332.22382 336.09827 340.52567 348.82748 356.07428 360.50165 366.0369 371.01819 373.7858 379.32101 383.74838 388.17578 392.07812 394.84573 400.38095">,PrinciplesofComputerSystems(PCS1):Securedan’A’gradeincoresystemsengineering</tspan><tspan
         id="tspan446"
         y="11.956"
         x="-107.89795 -103.47057 -98.489265 -92.954048 -89.051697 -85.122444 -80.695068 -73.77903 -68.797729 -64.895378 -56.309612 -51.882233 -47.179886 -42.200577 -37.773197 -33.870846 -31.103237 -25.568016 -17.269171 -11.733951 -8.9663401 -3.9850399 -1.2174298 2.6570253 7.6383252 13.733444 16.501055 21.482355 26.463654 29.231264 36.976189 42.51141 46.938789 50.868038 53.635651 58.616951 64.152168 70.237328 73.834824 79.370041 83.299294 87.173744 91.076096 96.61132 101.0387 104.91315 107.68076 112.66206 121.51483 127.05005 131.47743 138.6794 146.15134 150.0537 154.20212 159.73734 162.50494 166.37941 170.80678 175.23416 179.10861 184.64384 188.54619 192.97357 200.22037 204.09482 207.69232 213.22754 220.69948 224.57394 230.66905 235.65036 241.18558 250.03835 253.08292 258.61813 264.15335 269.68857 274.66989 282.97171 287.39908 292.65536 296.52982 301.51111 307.59628 312.02365 317.00494 325.30679 330.84201 333.60962 336.37723 340.8046 348.03445 356.3363 360.76367 364.91211 370.44733 375.42862 380.96384 383.73145 388.15884 392.08807">courseworkcoveringdigitallogicdesign,InstructionSetArchitectures(ISA),andfundamentalcompilermechanics.</tspan></text>
</g></svg>